<!-- icons.svg -->
<svg xmlns="http://www.w3.org/2000/svg" style="display: none;">
    <!-- View Icon -->
    <symbol id="icon-view" viewBox="0 0 51.000000 31.000000">
        <g transform="translate(0.000000,31.000000) scale(0.100000,-0.100000)" fill="#3b82f6" stroke="none">
            <path d="M165 170 c-22 -11 -46 -30 -54 -42 -13 -20 -13 -22 1 -10 13 10 18 9 28 -4 42 -49 118 -54 160 -9 18 19 26 22 37 14 20 -17 16 5 -5 24 -22 20 -85 47 -109 47 -10 0 -36 -9 -58 -20z m134 -17 l25 -16 -28 -23 c-41 -36 -74 -41 -116 -17 -46 27 -46 54 0 70 41 15 83 10 119 -14z"/>
            <path d="M205 156 c-20 -15 -17 -44 7 -59 12 -8 21 -7 32 2 36 30 -1 85 -39 57z m45 -26 c0 -23 -13 -32 -34 -24 -19 7 -21 25 -5 41 16 16 39 5 39 -17z"/>
        </g>
    </symbol>
    <!-- Edit Icon -->
    <symbol id="icon-edit" viewBox="0 0 59.000000 44.000000">
        <g transform="translate(0.000000,44.000000) scale(0.100000,-0.100000)" fill="#10b981" stroke="none">
            <path d="M200 323 c-26 -10 -30 -26 -30 -125 0 -125 2 -128 121 -128 131 0 129 -2 129 130 0 98 -2 110 -19 120 -20 10 -175 13 -201 3z m208 -43 l3 -25 -16 23 c-14 20 -25 22 -95 22 -74 0 -81 -2 -96 -25 -19 -30 -16 -134 5 -159 19 -23 157 -23 183 1 16 15 18 15 18 0 0 -26 -34 -37 -119 -37 -105 0 -111 6 -111 115 0 122 -6 116 119 113 105 -3 106 -3 109 -28z m-23 -80 l0 -85 -85 0 -85 0 -3 79 c-2 57 1 82 10 88 7 4 47 7 88 6 l75 -3 0 -85z"/>
            <path d="M282 216 c-60 -62 -74 -86 -51 -86 16 0 140 122 136 134 -8 23 -27 13 -85 -48z m78 50 c0 -12 -48 -55 -54 -49 -3 4 4 17 16 29 22 21 38 30 38 20z"/>
        </g>
    </symbol>
    <!-- Delete Icon -->
    <symbol id="icon-delete" viewBox="0 0 46.000000 32.000000">
        <g transform="translate(0.000000,32.000000) scale(0.100000,-0.100000)" fill="#ef4444" stroke="none">
            <path d="M182 260 c-97 -60 -64 -205 50 -217 55 -5 103 23 124 73 13 31 13 42 2 77 -24 77 -108 108 -176 67z m141 -30 c41 -45 38 -101 -7 -146 -26 -26 -42 -34 -71 -34 -54 0 -105 53 -105 108 0 101 115 147 183 72z"/>
            <path d="M200 205 c0 -5 7 -17 17 -27 15 -17 15 -19 -2 -38 -10 -11 -16 -22 -13 -25 3 -3 13 4 23 15 l18 20 24 -22 c26 -25 32 -14 6 14 -15 17 -15 19 2 38 10 11 16 22 13 25 -3 3 -13 -4 -23 -15 l-18 -20 -24 22 c-13 12 -23 18 -23 13z"/>
        </g>
    </symbol>
</svg>
